<svg xmlns="http://www.w3.org/2000/svg" viewBox="0 0 392.444 392.444"><path d="M392.346 182.255L392.444 0 210.22.098c-44.203 1.014-88.099 18.337-121.832 52.07-69.557 69.557-69.557 182.331 0 251.888 69.558 69.558 182.332 69.558 251.889.001 33.724-33.725 51.045-77.611 52.069-121.802z" fill="#95d5a7"/><path d="M81.526 180c0-73.271 28.382-136.844 69.95-168.545-23.003 8.644-44.577 22.202-63.088 40.713-69.557 69.557-69.557 182.331 0 251.888 16.153 16.153 34.64 28.55 54.372 37.2C105.992 307.692 81.526 248.027 81.526 180z" fill="#80cb93"/><path d="M351.526.023v291.678c26.33-31.738 39.917-70.471 40.82-109.446L392.444 0l-40.918.023z" fill="#aedeba"/><path fill="#d3edd7" d="M293.449 205.919v-30h-55.711l52.176-52.175-21.213-21.213-52.175 52.175V98.995h-30v85.711l-33.64 33.64V98.995h-30v149.351L0 371.231l21.213 21.213 122.886-122.885h149.35v-30h-119.35l33.639-33.64z"/></svg>